<svg id="Layer_1" data-name="Layer 1" xmlns="http://www.w3.org/2000/svg" viewBox="0 0 124.92 30.6"><defs><style>.cls-1{fill:#474747;}.cls-2{fill:#4476bb;}</style></defs><title>logo</title><path class="cls-1" d="M88.81,21a4.42,4.42,0,0,1-3.21,1.36,5.17,5.17,0,0,1-2.14-.45,5.3,5.3,0,0,1-1.74-1.23,6.14,6.14,0,0,1-1.16-1.83,6.26,6.26,0,0,1-.42-2.3,5.69,5.69,0,0,1,.42-2.19,5.62,5.62,0,0,1,1.18-1.81,5.67,5.67,0,0,1,1.78-1.23,5.28,5.28,0,0,1,2.22-.46,5.43,5.43,0,0,1,2.78.67,4.45,4.45,0,0,1,1.75,1.8L88.6,14.56a3.12,3.12,0,0,0-1.24-1.3,3.39,3.39,0,0,0-1.7-.44,3,3,0,0,0-1.34.3,3.21,3.21,0,0,0-1,.83,4.09,4.09,0,0,0-.66,1.22,4.32,4.32,0,0,0-.23,1.45,4.15,4.15,0,0,0,.26,1.5,3.78,3.78,0,0,0,.71,1.2,3.41,3.41,0,0,0,1.07.81,3.14,3.14,0,0,0,1.36.29,3.92,3.92,0,0,0,3-1.55v-.8H86.49V16.46h4.17v5.83H88.81Z"/><path class="cls-1" d="M96.29,22.45a5,5,0,0,1-1.85-.33A4.38,4.38,0,0,1,93,21.17a4.26,4.26,0,0,1-.91-1.37,4.56,4.56,0,0,1-.3-1.65,4.62,4.62,0,0,1,.3-1.67,4,4,0,0,1,.9-1.39,3.92,3.92,0,0,1,1.41-1,4.7,4.7,0,0,1,1.88-.35,4.47,4.47,0,0,1,1.84.35,4.11,4.11,0,0,1,1.4.94,3.73,3.73,0,0,1,.87,1.37,4.37,4.37,0,0,1,.31,1.63c0,.14,0,.27,0,.4a1.32,1.32,0,0,1,0,.32H94.12a2.38,2.38,0,0,0,.24.88,2.35,2.35,0,0,0,.5.66,2.15,2.15,0,0,0,.7.41,2.24,2.24,0,0,0,.81.15,2.6,2.6,0,0,0,1.22-.31,1.66,1.66,0,0,0,.79-.83l1.87.51a3.81,3.81,0,0,1-1.51,1.58A4.66,4.66,0,0,1,96.29,22.45Zm2.2-5.05a2.2,2.2,0,0,0-2.22-2.08,2.26,2.26,0,0,0-.82.16,2.23,2.23,0,0,0-.67.42,2.34,2.34,0,0,0-.48.66,2.26,2.26,0,0,0-.21.84Z"/><path class="cls-1" d="M106,22.45a4.9,4.9,0,0,1-1.84-.33,4.38,4.38,0,0,1-1.41-.95,4.11,4.11,0,0,1-.91-1.37,4.36,4.36,0,0,1-.31-1.65,4.43,4.43,0,0,1,.31-1.67,3.81,3.81,0,0,1,.89-1.39,4.11,4.11,0,0,1,1.41-1,4.74,4.74,0,0,1,1.88-.35,4.52,4.52,0,0,1,1.85.35,4.16,4.16,0,0,1,1.39.94,3.88,3.88,0,0,1,.88,1.37,4.58,4.58,0,0,1,.31,1.63c0,.14,0,.27,0,.4a1.39,1.39,0,0,1,0,.32h-6.57a2.38,2.38,0,0,0,.25.88,2,2,0,0,0,.5.66,2.11,2.11,0,0,0,.69.41,2.25,2.25,0,0,0,.82.15,2.56,2.56,0,0,0,1.21-.31,1.73,1.73,0,0,0,.8-.83l1.86.51a3.75,3.75,0,0,1-1.51,1.58A4.64,4.64,0,0,1,106,22.45Zm2.21-5.05A2.2,2.2,0,0,0,106,15.32a2.31,2.31,0,0,0-.83.16,2.06,2.06,0,0,0-.66.42,2.19,2.19,0,0,0-.49.66,2.26,2.26,0,0,0-.21.84Z"/><path class="cls-1" d="M117.56,22.29l-2.46-3.63-1.17,1.14v2.49h-2.17V10.63h2.17v7.08l3.41-3.78h2.31l-3.16,3.55,3.39,4.81Z"/><path class="cls-2" d="M39.88,10.14h2l4.37,11.35h-2.3l-1.07-2.83h-4l-1.05,2.83h-2.3Zm2.58,7-1.59-4.46-1.65,4.46Z"/><path class="cls-2" d="M47.27,9.82h2.17v9a1.05,1.05,0,0,0,.23.72.83.83,0,0,0,.65.26,1.32,1.32,0,0,0,.42-.07,2.18,2.18,0,0,0,.45-.16l.29,1.63a4,4,0,0,1-1,.32,5.21,5.21,0,0,1-1.05.11,2.26,2.26,0,0,1-1.59-.52,2.06,2.06,0,0,1-.55-1.54Z"/><path class="cls-2" d="M55,21.65a2.43,2.43,0,0,1-2-.83,3.86,3.86,0,0,1-.68-2.46V13.11h2.17v4.78c0,1.29.47,1.94,1.41,1.94a2.32,2.32,0,0,0,1.22-.37,2.78,2.78,0,0,0,1-1.15v-5.2h2.17V19a.77.77,0,0,0,.12.48.62.62,0,0,0,.4.16v1.82a4.86,4.86,0,0,1-.55.08h-.39a1.67,1.67,0,0,1-1-.25,1.13,1.13,0,0,1-.42-.74l-.05-.67A3.55,3.55,0,0,1,57,21.22,4.58,4.58,0,0,1,55,21.65Z"/><path class="cls-2" d="M67.51,15a4.34,4.34,0,0,0-1.77.38,2.21,2.21,0,0,0-1.12,1.07v5.07H62.45V13.11h2V14.9a3.44,3.44,0,0,1,.53-.76,4.15,4.15,0,0,1,.66-.61,2.79,2.79,0,0,1,.72-.38,1.89,1.89,0,0,1,.71-.15h.26l.18,0Z"/><path class="cls-2" d="M70.93,21.65a3.31,3.31,0,0,1-1.15-.2,2.86,2.86,0,0,1-.93-.55,2.83,2.83,0,0,1-.61-.85A2.61,2.61,0,0,1,68,19a2.32,2.32,0,0,1,.25-1.08,2.7,2.7,0,0,1,.75-.86,3.61,3.61,0,0,1,1.15-.55,4.81,4.81,0,0,1,1.46-.21,6.52,6.52,0,0,1,1.1.1,4.36,4.36,0,0,1,1,.27v-.48a1.68,1.68,0,0,0-.49-1.28,2,2,0,0,0-1.41-.44,3.77,3.77,0,0,0-1.33.24,6.11,6.11,0,0,0-1.33.7L68.5,14A6.36,6.36,0,0,1,72,13a4.12,4.12,0,0,1,2.84.9,3.17,3.17,0,0,1,1,2.55V19a.85.85,0,0,0,.11.48.65.65,0,0,0,.41.16v1.82a5.33,5.33,0,0,1-1,.11,1.52,1.52,0,0,1-1-.27,1.18,1.18,0,0,1-.4-.72l0-.47a3.72,3.72,0,0,1-1.38,1.12A4,4,0,0,1,70.93,21.65Zm.61-1.57a2.75,2.75,0,0,0,1-.19,2,2,0,0,0,.78-.51.77.77,0,0,0,.36-.61v-1a5.28,5.28,0,0,0-.85-.22,3.81,3.81,0,0,0-.87-.1,2.3,2.3,0,0,0-1.38.39,1.1,1.1,0,0,0-.54.94,1.15,1.15,0,0,0,.43.91A1.57,1.57,0,0,0,71.54,20.08Z"/><path class="cls-2" d="M29.51,22,28,11.79a5.37,5.37,0,0,0-5.35-4.57H10.44A5.36,5.36,0,0,0,5.1,11.79L3.62,22A3.41,3.41,0,0,0,7,25.86a3.44,3.44,0,0,0,2.43-1l3-3h8.11l3,3A3.45,3.45,0,0,0,29.51,22Zm-14.3-6.78h-2.7v2.66H11.16V15.21H8.46V13.88h2.7V11.21h1.35v2.67h2.7Zm5.41-1.33A1.34,1.34,0,1,1,22,12.54,1.34,1.34,0,0,1,20.62,13.88Zm2.7,4a1.33,1.33,0,1,1,1.35-1.33A1.35,1.35,0,0,1,23.32,17.87Z"/></svg>